<svg xmlns="http://www.w3.org/2000/svg" xmlns:xlink="http://www.w3.org/1999/xlink" width="20" height="20" viewBox="0 0 20 20"><defs><clipPath id="a"><circle cx="10" cy="10" r="10" transform="translate(34)" fill="#1d1d49"/></clipPath></defs><g transform="translate(-34)" clip-path="url(#a)"><g transform="translate(34.742 0.742)"><path d="M7.328,7.156c0-.873-.594-.873-.594-.873H4.289V8.157H6.583C6.979,8.157,7.328,8.03,7.328,7.156Z" transform="translate(0.123 0.18)" fill="#1d1d49"/><path d="M6.734,9.363H4.289v2.245H6.621c.351-.01,1-.12,1-1.091C7.62,9.351,6.734,9.363,6.734,9.363Z" transform="translate(0.123 0.268)" fill="#1d1d49"/><path d="M12.792,8.1A1.5,1.5,0,0,0,11.314,9.4h2.759A1.25,1.25,0,0,0,12.792,8.1Z" transform="translate(0.324 0.232)" fill="#1d1d49"/><path d="M9.258,0a9.258,9.258,0,1,0,9.258,9.258A9.258,9.258,0,0,0,9.258,0Zm2.018,5.464h3.465V6.5H11.276ZM9.525,10.889c0,2.563-2.668,2.479-2.668,2.479H2.487V4.97h4.37A2.146,2.146,0,0,1,9.234,7.206,1.458,1.458,0,0,1,7.952,8.8C9.641,8.8,9.525,10.889,9.525,10.889Zm3.607,1.325c1.4,0,1.347-.9,1.347-.9h1.478c0,2.4-2.874,2.234-2.874,2.234a2.979,2.979,0,0,1-3.227-3.211,3.158,3.158,0,0,1,3.227-3.227c3.4,0,2.923,3.645,2.923,3.645H11.654A1.366,1.366,0,0,0,13.132,12.213Z" fill="#1d1d49"/></g></g></svg>