<svg xmlns="http://www.w3.org/2000/svg" xmlns:xlink="http://www.w3.org/1999/xlink" width="20" height="20" viewBox="0 0 20 20"><defs><clipPath id="a"><path d="M10,0A10,10,0,1,1,0,10,10,10,0,0,1,10,0Z" transform="translate(209 4510)" fill="#1d1d49"/></clipPath></defs><g transform="translate(-209 -4510)" clip-path="url(#a)"><g transform="translate(209 4510)"><path d="M10.476,17.883q-.125.02-.251.038Q10.351,17.9,10.476,17.883Zm0,0" transform="translate(1.136 1.987)"/><path d="M10.643,17.852l-.119.021Zm0,0" transform="translate(1.169 1.984)"/><path d="M10.054,17.942q-.146.016-.294.029Q9.907,17.958,10.054,17.942Zm0,0" transform="translate(1.084 1.994)"/><path d="M10.211,17.92l-.141.018Zm0,0" transform="translate(1.119 1.991)"/><path d="M10.887,17.8l-.106.022Zm0,0" transform="translate(1.198 1.978)"/><path d="M11.493,17.652l-.085.024Zm0,0" transform="translate(1.268 1.961)"/><path d="M11.31,17.7l-.093.024Zm0,0" transform="translate(1.246 1.967)"/><path d="M11.07,17.763l-.1.022Zm0,0" transform="translate(1.219 1.974)"/><path d="M9.773,17.968l-.158.012Zm0,0" transform="translate(1.068 1.996)"/><path d="M20,10A10,10,0,1,0,10,20l.176,0V12.213H8.027v-2.5h2.148V7.867a3.008,3.008,0,0,1,3.211-3.3,17.685,17.685,0,0,1,1.926.1V6.9H14c-1.037,0-1.238.493-1.238,1.216V9.709h2.48l-.323,2.5H12.76v7.4A10.005,10.005,0,0,0,20,10Zm0,0" fill="#1d1d49"/><path d="M9.626,17.98q-.156.01-.313.016Q9.47,17.99,9.626,17.98Zm0,0" transform="translate(1.035 1.998)"/><path d="M9.324,17.994l-.166,0Zm0,0" transform="translate(1.018 1.999)"/></g></g></svg>